<?xml version="1.0" encoding="utf-8"?>
<svg viewBox="0 0 500 500" xmlns="http://www.w3.org/2000/svg">
  <defs>
    <filter id="outline-filter-0" x="-500%" y="-500%" width="1000%" height="1000%">
      <feMorphology in="SourceAlpha" result="dilated" operator="dilate" radius="4"/>
      <feFlood flood-color="rgba(137,53,0,1)" result="flood"/>
      <feComposite in="flood" in2="dilated" operator="in" result="outline"/>
      <feMerge>
        <feMergeNode in="outline"/>
        <feMergeNode in="SourceGraphic"/>
      </feMerge>
    </filter>
  </defs>
  <path class="a" d="M 476.408 225.35 L 476.408 291.847 C 476.408 296.936 473.693 301.64 469.284 304.186 C 459.785 309.671 447.911 302.814 447.911 291.847 L 447.911 277.598 L 408.7 277.598 C 405.231 307.141 393.62 335.139 375.166 358.47 L 402.916 386.223 L 414.086 376.764 C 417.689 373.153 422.949 371.741 427.874 373.069 C 438.467 375.918 442 389.165 434.236 396.913 L 386.741 444.409 C 383.141 448.01 377.895 449.416 372.979 448.097 C 362.382 445.259 358.836 432.015 366.59 424.26 L 376.047 413.092 L 348.299 385.341 C 324.967 403.793 296.968 415.402 267.423 418.87 L 267.423 458.084 L 281.672 458.084 C 286.764 458.084 291.468 460.797 294.013 465.209 C 299.497 474.707 292.642 486.581 281.672 486.581 L 215.176 486.581 C 210.087 486.581 205.382 483.865 202.837 479.456 C 197.352 469.957 204.209 458.084 215.176 458.084 L 229.425 458.084 L 229.425 418.87 C 199.882 415.402 171.882 403.793 148.551 385.341 L 120.8 413.092 L 130.259 424.26 C 133.858 427.859 135.265 433.107 133.946 438.024 C 131.107 448.619 117.864 452.165 110.108 444.409 L 62.614 396.913 C 59.026 393.318 57.623 388.084 58.933 383.177 C 61.76 372.58 75.001 369.017 82.763 376.764 L 93.933 386.223 L 121.683 358.47 C 103.228 335.139 91.62 307.141 88.151 277.598 L 48.939 277.598 L 48.939 291.847 C 48.939 296.936 46.224 301.64 41.814 304.186 C 32.315 309.671 20.441 302.814 20.441 291.847 L 20.441 225.35 C 20.441 220.261 23.158 215.557 27.567 213.01 C 37.066 207.525 48.939 214.381 48.939 225.35 L 48.939 239.598 L 88.151 239.598 C 91.62 210.055 103.228 182.058 121.684 158.726 L 93.933 130.975 L 83.857 140.431 C 80.269 144.004 75.049 145.404 70.153 144.106 C 59.553 141.294 55.97 128.059 63.707 120.282 L 110.108 72.787 C 113.708 69.186 118.954 67.782 123.871 69.099 C 134.466 71.937 138.014 85.18 130.259 92.936 L 120.8 104.104 L 148.551 131.855 C 171.884 113.403 199.882 101.795 229.425 98.325 L 229.425 59.112 L 215.176 59.112 C 210.087 59.112 205.382 56.398 202.837 51.988 C 197.352 42.489 204.209 30.615 215.176 30.615 L 281.672 30.615 C 286.764 30.615 291.468 33.332 294.013 37.739 C 299.497 47.238 292.642 59.112 281.672 59.112 L 267.423 59.112 L 267.423 98.325 C 296.968 101.795 324.967 113.403 348.297 131.855 L 376.047 104.104 L 366.59 92.936 C 362.992 89.336 361.585 84.089 362.904 79.172 C 365.742 68.578 378.985 65.03 386.742 72.787 L 434.236 120.282 C 437.848 123.888 439.256 129.146 437.932 134.073 C 435.078 144.665 421.832 148.196 414.086 140.431 L 402.916 130.975 L 375.166 158.726 C 393.62 182.058 405.231 210.055 408.7 239.598 L 447.911 239.598 L 447.911 225.35 C 447.91 217.48 454.289 211.1 462.158 211.102 C 470.029 211.1 476.41 217.48 476.408 225.35 Z M 224.877 204.797 C 228.141 199.958 227.891 175.786 224.972 170.729 C 212.175 148.564 180.183 148.564 167.385 170.729 C 154.589 192.894 170.821 217.129 196.178 220.6 C 205.548 221.883 216.021 217.926 224.877 204.797 Z M 324.714 327.869 C 324.714 324.535 323.542 318.481 321.874 315.595 C 314.561 302.928 296.279 302.928 288.967 315.595 C 281.654 328.259 290.796 344.091 305.42 344.091 C 315.912 344.091 324.714 338.362 324.714 327.869 Z M 194.379 345.031 C 189.932 345.031 186.327 348.636 186.327 353.083 C 186.327 357.53 189.932 361.135 194.379 361.135 C 198.826 361.135 202.431 357.53 202.431 353.083 C 202.431 348.636 198.826 345.031 194.379 345.031 Z" style="paint-order: stroke; fill: rgb(218, 85, 85); stroke-width: 10px; stroke-miterlimit: 8; filter: url(#outline-filter-0); stroke-linejoin: round; stroke-linecap: round;"/>
</svg>