<?xml version='1.0' encoding='iso-8859-1'?>
<!DOCTYPE svg PUBLIC '-//W3C//DTD SVG 1.1//EN' 'http://www.w3.org/Graphics/SVG/1.1/DTD/svg11.dtd'>
<svg version="1.1" xmlns="http://www.w3.org/2000/svg" viewBox="0 0 297 297" xmlns:xlink="http://www.w3.org/1999/xlink" enable-background="new 0 0 297 297">
  <g>
    <path d="M262.654,0H34.346C15.813,0,0.735,15.078,0.735,33.611V263.39c0,18.532,15.077,33.61,33.61,33.61h228.309   c18.533,0,33.61-15.078,33.61-33.61V33.611C296.265,15.078,281.188,0,262.654,0z M275.259,263.39   c0,6.95-5.654,12.605-12.604,12.605H34.346c-6.95,0-12.604-5.654-12.604-12.605V33.611c0-6.95,5.654-12.604,12.604-12.604h228.309   c6.95,0,12.604,5.653,12.604,12.604V263.39z"/>
    <path d="m250.564,37.461h-204.123c-4.641,0-8.403,3.762-8.403,8.402v205.277c0,4.641 3.763,8.402 8.403,8.402h204.123c4.64,0 8.402-3.762 8.402-8.402v-205.277c0.001-4.64-3.762-8.402-8.402-8.402zm-8.403,205.277h-187.317v-188.472h187.317v188.472z"/>
    <path d="m148.502,235.035c47.492,0 86.129-38.82 86.129-86.534 0-47.716-38.637-86.536-86.129-86.536-47.489,0-86.125,38.82-86.125,86.536-7.10543e-15,47.714 38.636,86.534 86.125,86.534zm0-152.063c35.908-1.42109e-14 65.122,29.396 65.122,65.529 0,36.132-29.214,65.527-65.122,65.527-35.906,0-65.119-29.396-65.119-65.527-1.42109e-14-36.133 29.213-65.529 65.119-65.529z"/>
    <path d="m118.886,165.205c5.8,0 10.503-4.703 10.503-10.504v-29.764c0-5.801-4.703-10.504-10.503-10.504-5.801,0-10.504,4.703-10.504,10.504v29.764c0,5.801 4.703,10.504 10.504,10.504z"/>
    <path d="m178.119,165.205c5.8,0 10.503-4.703 10.503-10.504v-29.764c0-5.801-4.703-10.504-10.503-10.504-5.801,0-10.504,4.703-10.504,10.504v29.764c-2.84217e-14,5.801 4.703,10.504 10.504,10.504z"/>
    <path d="m148.501,200.986c5.801,0 10.503-4.703 10.503-10.504v-16.887c0-5.801-4.702-10.504-10.503-10.504-5.801,0-10.503,4.703-10.503,10.504v16.887c-5.68434e-14,5.801 4.702,10.504 10.503,10.504z"/>
  </g>
</svg>
